<svg width="147" height="41" viewBox="0 0 147 41" fill="none" xmlns="http://www.w3.org/2000/svg">
<g id="Clip path group">
<mask id="mask0_303_470" style="mask-type:luminance" maskUnits="userSpaceOnUse" x="0" y="0" width="147" height="41">
<g id="clip0_1302_22076">
<path id="Vector" d="M146.73 0.536621H0.810547V40.5366H146.73V0.536621Z" fill="white"/>
</g>
</mask>
<g mask="url(#mask0_303_470)">
<g id="Group">
<path id="Vector_2" d="M135.739 0.536751H11.8076C11.3846 0.536751 10.9667 0.536751 10.5449 0.538751C10.1918 0.540751 9.84153 0.546561 9.48504 0.551451C8.71056 0.559353 7.93792 0.618427 7.1738 0.72816C6.41076 0.840283 5.67162 1.05167 4.98138 1.35516C4.29199 1.66122 3.66208 2.05891 3.11448 2.53381C2.56402 3.00738 2.10516 3.55476 1.75556 4.1549C1.40499 4.75385 1.16191 5.39567 1.0347 6.05821C0.906289 6.71992 0.837187 7.38925 0.82802 8.06021C0.817317 8.3668 0.816187 8.67442 0.810547 8.98106V32.0952C0.816187 32.4057 0.817317 32.7065 0.82802 33.0171C0.837191 33.688 0.906292 34.3573 1.0347 35.019C1.16156 35.6819 1.40465 36.3241 1.75556 36.9233C2.105 37.5215 2.56392 38.0667 3.11448 38.5376C3.66 39.0146 4.29032 39.4126 4.98138 39.7163C5.67162 40.0206 6.41067 40.2333 7.1738 40.3471C7.93805 40.456 8.71062 40.5151 9.48504 40.5239C9.84153 40.5307 10.1918 40.5346 10.5449 40.5346C10.9667 40.5366 11.3846 40.5366 11.8076 40.5366H135.739C136.153 40.5366 136.575 40.5366 136.989 40.5346C137.34 40.5346 137.701 40.5307 138.052 40.5239C138.825 40.5155 139.597 40.4564 140.359 40.3471C141.124 40.2324 141.867 40.0199 142.56 39.7163C143.25 39.4124 143.88 39.0145 144.425 38.5376C144.974 38.0648 145.435 37.5201 145.788 36.9233C146.136 36.3237 146.377 35.6816 146.502 35.019C146.63 34.3573 146.703 33.6881 146.717 33.0171C146.721 32.7065 146.721 32.4057 146.721 32.0952C146.73 31.7319 146.73 31.3706 146.73 31.0014V10.0729C146.73 9.70664 146.73 9.34336 146.721 8.98106C146.721 8.67442 146.721 8.3668 146.717 8.06017C146.703 7.38915 146.63 6.71997 146.502 6.05817C146.376 5.39602 146.136 4.75424 145.788 4.15486C145.076 2.95194 143.947 1.97277 142.56 1.35507C141.867 1.05232 141.124 0.84099 140.359 0.72807C139.597 0.617854 138.825 0.558759 138.052 0.551311C137.701 0.546431 137.34 0.540571 136.989 0.538621C136.575 0.536621 136.153 0.536751 135.739 0.536751Z" fill="white"/>
<path id="Vector_3" d="M10.6155 39.5346C10.2644 39.5346 9.92187 39.5307 9.57358 39.524C8.85206 39.5159 8.13222 39.4617 7.41998 39.362C6.75586 39.2633 6.11249 39.0799 5.51111 38.8177C4.91526 38.5576 4.37178 38.2166 3.90152 37.8078C3.42444 37.4037 3.02726 36.9351 2.7257 36.4205C2.42082 35.9025 2.20983 35.3473 2.10006 34.7742C1.98154 34.1584 1.91741 33.5357 1.90823 32.9115C1.90092 32.702 1.89136 32.0045 1.89136 32.0045V9.05609C1.89136 9.05609 1.90154 8.36924 1.90828 8.16745C1.91707 7.54426 1.98082 6.92256 2.09901 6.30771C2.20896 5.73304 2.42013 5.17623 2.72517 4.65656C3.02561 4.14228 3.4206 3.67331 3.89479 3.26782C4.36846 2.85848 4.91368 2.51573 5.51055 2.25209C6.11054 1.9907 6.75269 1.80855 7.41548 1.71173C8.13006 1.61096 8.85239 1.55648 9.57641 1.54875L10.616 1.53662H136.918L137.97 1.54924C138.688 1.55659 139.403 1.61058 140.111 1.71076C140.781 1.80879 141.43 1.99221 142.036 2.255C143.233 2.78632 144.206 3.62692 144.82 4.65898C145.119 5.17507 145.328 5.72734 145.436 6.29704C145.556 6.91693 145.623 7.54352 145.636 8.17182C145.64 8.45315 145.64 8.75535 145.64 9.05609C145.649 9.42862 145.649 9.7832 145.649 10.1407V30.9315C145.649 31.2924 145.649 31.6445 145.64 31.9996C145.64 32.3226 145.64 32.6186 145.635 32.9232C145.622 33.5402 145.556 34.1556 145.438 34.7644C145.331 35.3417 145.121 35.9012 144.816 36.4234C144.513 36.9325 144.117 37.3971 143.646 37.8C143.176 38.2111 142.631 38.5541 142.033 38.8158C141.428 39.08 140.78 39.2641 140.111 39.362C139.399 39.4623 138.679 39.5164 137.958 39.524C137.621 39.5307 137.268 39.5346 136.924 39.5346L135.675 39.5366L10.6155 39.5346Z" fill="black"/>
<path id="Vector_4" d="M27.8295 20.4273C27.8416 19.5593 28.0908 18.7083 28.5539 17.9534C29.017 17.1984 29.679 16.5642 30.4783 16.1096C29.9706 15.4387 29.3007 14.8865 28.522 14.497C27.7432 14.1075 26.877 13.8914 25.9922 13.8658C24.1047 13.6825 22.2749 14.9107 21.313 14.9107C20.3327 14.9107 18.8518 13.884 17.2571 13.9143C16.2257 13.9452 15.2203 14.2227 14.3393 14.7198C13.4582 15.2169 12.7314 15.9167 12.2295 16.751C10.0557 20.233 11.6772 25.3504 13.7595 28.165C14.8014 29.5433 16.019 31.0828 17.6122 31.0282C19.1713 30.9684 19.7535 30.1084 21.6355 30.1084C23.4999 30.1084 24.0462 31.0282 25.6717 30.9935C27.3447 30.9684 28.3988 29.6091 29.404 28.2179C30.1526 27.2358 30.7286 26.1505 31.1107 25.002C30.1388 24.6216 29.3094 23.985 28.7258 23.1715C28.1424 22.358 27.8307 21.4036 27.8295 20.4273Z" fill="white"/>
<path id="Vector_5" d="M24.759 12.0141C25.6712 11.0011 26.1205 9.69895 26.0118 8.38428C24.6182 8.51969 23.3309 9.13589 22.4064 10.1101C21.9544 10.586 21.6081 11.1397 21.3876 11.7395C21.167 12.3392 21.0764 12.9734 21.1209 13.6056C21.8179 13.6122 22.5074 13.4724 23.1377 13.1968C23.7679 12.9211 24.3222 12.5168 24.759 12.0141Z" fill="white"/>
<path id="Vector_6" d="M39.3128 15.2378V10.1143H37.2839V9.271H42.339V10.1142H40.3145V15.2378H39.3128Z" fill="white"/>
<path id="Vector_7" d="M46.9967 14.0224C46.8662 14.434 46.5835 14.79 46.1979 15.0281C45.8124 15.2663 45.3487 15.3714 44.8878 15.3252C44.5671 15.333 44.2484 15.2762 43.9539 15.1586C43.6593 15.0411 43.3959 14.8657 43.182 14.6446C42.9681 14.4234 42.8088 14.1619 42.7151 13.878C42.6214 13.5942 42.5955 13.2949 42.6394 13.0009C42.5967 12.7061 42.623 12.4061 42.7165 12.1215C42.81 11.8368 42.9684 11.574 43.1813 11.3509C43.3941 11.1279 43.6561 10.9497 43.9499 10.8285C44.2436 10.7073 44.562 10.6459 44.8836 10.6484C46.2378 10.6484 47.0548 11.5044 47.0548 12.9184V13.2285H43.6178V13.2783C43.6028 13.4435 43.6253 13.6098 43.6838 13.7666C43.7423 13.9233 43.8355 14.0671 43.9576 14.1885C44.0796 14.31 44.2278 14.4065 44.3925 14.4719C44.5572 14.5373 44.7348 14.5701 44.9141 14.5683C45.1438 14.5938 45.3767 14.5555 45.5829 14.4583C45.789 14.3611 45.9594 14.2094 46.0721 14.0224H46.9967ZM43.6178 12.5713H46.0763C46.0884 12.4201 46.0661 12.2683 46.0111 12.1256C45.956 11.9829 45.8693 11.8524 45.7565 11.7426C45.6436 11.6327 45.5072 11.5459 45.3559 11.4877C45.2047 11.4296 45.042 11.4013 44.8783 11.4048C44.7121 11.4028 44.5472 11.4317 44.3933 11.4896C44.2395 11.5476 44.0996 11.6334 43.9822 11.7421C43.8647 11.8509 43.772 11.9802 43.7094 12.1226C43.6468 12.265 43.6157 12.4176 43.6178 12.5713ZM44.3061 9.98242L45.4282 8.56006H46.5545L45.2983 9.98242H44.3061Z" fill="white"/>
<path id="Vector_8" d="M48.3894 8.97803H49.3499V15.2387H48.3894V8.97803Z" fill="white"/>
<path id="Vector_9" d="M55.0421 14.0224C54.9116 14.434 54.6289 14.79 54.2433 15.0281C53.8578 15.2663 53.394 15.3714 52.9331 15.3252C52.6125 15.333 52.2938 15.2762 51.9993 15.1586C51.7046 15.0411 51.4413 14.8657 51.2274 14.6446C51.0135 14.4234 50.8541 14.1619 50.7605 13.878C50.6668 13.5942 50.641 13.2949 50.6848 13.0009C50.642 12.7061 50.6684 12.4061 50.7618 12.1215C50.8553 11.8368 51.0139 11.574 51.2266 11.3509C51.4394 11.1279 51.7015 10.9497 51.9952 10.8285C52.2889 10.7073 52.6073 10.6459 52.9289 10.6484C54.2832 10.6484 55.1001 11.5044 55.1001 12.9184V13.2285H51.6633V13.2783C51.6482 13.4435 51.6707 13.6098 51.7292 13.7666C51.7877 13.9233 51.8809 14.0671 52.003 14.1885C52.125 14.31 52.2732 14.4065 52.4379 14.4719C52.6025 14.5373 52.7802 14.5701 52.9594 14.5683C53.1892 14.5938 53.4221 14.5555 53.6282 14.4583C53.8344 14.3611 54.0047 14.2094 54.1174 14.0224H55.0421ZM51.6633 12.5713H54.1216C54.1337 12.4201 54.1116 12.2683 54.0564 12.1256C54.0014 11.9829 53.9146 11.8524 53.8018 11.7426C53.6889 11.6327 53.5525 11.5459 53.4013 11.4877C53.2501 11.4296 53.0873 11.4013 52.9236 11.4048C52.7574 11.4028 52.5926 11.4317 52.4387 11.4896C52.2848 11.5476 52.145 11.6334 52.0275 11.7422C51.9101 11.8509 51.8174 11.9802 51.7548 12.1226C51.6922 12.265 51.6611 12.4176 51.6633 12.5713ZM52.3514 9.98242L53.4735 8.56006H54.5998L53.3437 9.98242H52.3514Z" fill="white"/>
<path id="Vector_10" d="M59.5776 12.2081C59.5164 11.9746 59.3668 11.7691 59.1559 11.6289C58.9451 11.4886 58.6869 11.4228 58.4281 11.4435C57.6238 11.4435 57.1319 12.0138 57.1319 12.9733C57.1319 13.9493 57.6281 14.5323 58.4281 14.5323C58.6843 14.5598 58.9425 14.4997 59.1543 14.3634C59.3659 14.2271 59.5165 14.0239 59.5776 13.7921H60.5119C60.45 14.2481 60.1982 14.6637 59.8099 14.9503C59.4216 15.2369 58.9277 15.3718 58.4334 15.3263C58.108 15.3358 57.7842 15.2794 57.4848 15.1611C57.1853 15.0427 56.9175 14.8653 56.6999 14.6412C56.4824 14.4171 56.3204 14.1517 56.2253 13.8636C56.1301 13.5755 56.1041 13.2716 56.1492 12.9733C56.1064 12.6772 56.1341 12.3759 56.23 12.0907C56.3261 11.8054 56.4883 11.543 56.7053 11.3217C56.9224 11.1005 57.1889 10.9257 57.4865 10.8096C57.784 10.6935 58.1054 10.6389 58.4281 10.6496C58.9264 10.6071 59.423 10.7462 59.8122 11.0373C60.2013 11.3284 60.4523 11.7485 60.5119 12.2082L59.5776 12.2081Z" fill="white"/>
<path id="Vector_11" d="M61.7864 8.97803H62.7385V11.4595H62.8145C62.9422 11.2001 63.1533 10.9835 63.4188 10.8392C63.6844 10.6948 63.9916 10.6298 64.2986 10.6528C64.5342 10.641 64.7697 10.6773 64.9883 10.7594C65.2069 10.8414 65.4033 10.9671 65.5634 11.1274C65.7235 11.2878 65.8434 11.4788 65.9145 11.687C65.9856 11.8951 66.0063 12.1152 65.9748 12.3315V15.2388H65.0131V12.5508C65.0131 11.8315 64.651 11.4673 63.9724 11.4673C63.8073 11.4547 63.6413 11.4757 63.4858 11.5288C63.3304 11.5818 63.1895 11.6657 63.0727 11.7744C62.956 11.8831 62.8664 12.0142 62.8101 12.1583C62.7538 12.3024 62.7323 12.4562 62.747 12.6089V15.2387H61.7864V8.97803Z" fill="white"/>
<path id="Vector_12" d="M67.1824 13.9643C67.1824 13.1538 67.8347 12.6865 68.9926 12.6201L70.311 12.5498V12.1611C70.311 11.6855 69.9712 11.417 69.3145 11.417C68.7783 11.417 68.4068 11.5991 68.3002 11.9175H67.3702C67.4684 11.144 68.2548 10.6479 69.3588 10.6479C70.5792 10.6479 71.2674 11.2099 71.2674 12.1611V15.2378H70.3427V14.605H70.2667C70.1124 14.8319 69.8958 15.017 69.639 15.1412C69.3821 15.2654 69.0942 15.3243 68.8048 15.312C68.6004 15.3316 68.3939 15.3115 68.1985 15.2528C68.0031 15.1941 67.8232 15.0981 67.6704 14.9712C67.5176 14.8442 67.3951 14.689 67.311 14.5156C67.227 14.3422 67.1831 14.1544 67.1824 13.9643ZM70.311 13.5796V13.2031L69.1224 13.2734C68.4522 13.3149 68.1481 13.5259 68.1481 13.9228C68.1481 14.3281 68.5282 14.5639 69.0507 14.5639C69.2038 14.5783 69.3584 14.564 69.5055 14.5219C69.6525 14.4798 69.7888 14.4108 69.9064 14.3189C70.024 14.2271 70.1204 14.1143 70.1899 13.9873C70.2594 13.8603 70.3006 13.7216 70.311 13.5796Z" fill="white"/>
<path id="Vector_13" d="M72.7715 10.7352H73.6961V11.4256H73.7678C73.8714 11.1859 74.0544 10.9828 74.2904 10.8453C74.5266 10.7078 74.8038 10.6431 75.0821 10.6605C75.2259 10.6587 75.3696 10.6711 75.5107 10.6976V11.5746C75.3344 11.5397 75.1546 11.5217 74.9744 11.5209C74.816 11.5077 74.6563 11.5253 74.5057 11.5727C74.3551 11.62 74.2168 11.6959 74.0998 11.7956C73.9828 11.8953 73.8897 12.0165 73.8263 12.1515C73.763 12.2865 73.7309 12.4323 73.732 12.5794V15.2381H72.7715V10.7352Z" fill="white"/>
<path id="Vector_14" d="M76.3942 15.6889H77.377C77.4582 16.0156 77.8647 16.2265 78.5128 16.2265C79.3128 16.2265 79.7868 15.875 79.7868 15.2797V14.4155H79.715C79.5643 14.6574 79.3443 14.8561 79.0792 14.9896C78.8142 15.123 78.5144 15.1861 78.2129 15.1718C76.9705 15.1718 76.2021 14.2832 76.2021 12.935C76.2021 11.562 76.979 10.6606 78.2224 10.6606C78.5315 10.6506 78.8373 10.7194 79.1069 10.8594C79.3765 10.9995 79.5993 11.2053 79.7509 11.4545H79.8269V10.7353H80.7474V15.2753C80.7474 16.3051 79.8754 16.9584 78.499 16.9584C77.283 16.9585 76.4967 16.4541 76.3942 15.6889ZM79.8047 12.9306C79.8047 12.0336 79.3033 11.4589 78.4853 11.4589C77.6589 11.4589 77.1944 12.0336 77.1944 12.9306C77.1944 13.8281 77.6589 14.4028 78.4853 14.4028C79.3086 14.4028 79.8047 13.8325 79.8047 12.9306Z" fill="white"/>
<path id="Vector_15" d="M86.393 14.022C86.2624 14.4336 85.9797 14.7896 85.5941 15.0277C85.2086 15.2659 84.7447 15.371 84.2839 15.3248C83.9633 15.3326 83.6446 15.2757 83.3501 15.1582C83.0555 15.0407 82.7921 14.8653 82.5782 14.6441C82.3643 14.423 82.205 14.1614 82.1113 13.8776C82.0176 13.5938 81.9918 13.2945 82.0356 13.0005C81.9929 12.7057 82.0192 12.4057 82.1127 12.1211C82.2062 11.8364 82.3647 11.5736 82.5775 11.3505C82.7903 11.1275 83.0524 10.9493 83.3461 10.8281C83.6398 10.7069 83.9582 10.6455 84.2797 10.648C85.634 10.648 86.451 11.504 86.451 12.918V13.2281H83.0141V13.2779C82.9991 13.4431 83.0215 13.6094 83.0801 13.7662C83.1386 13.9229 83.2318 14.0666 83.3539 14.1881C83.4759 14.3096 83.624 14.4061 83.7887 14.4715C83.9534 14.5369 84.1311 14.5697 84.3103 14.5679C84.5401 14.5934 84.7728 14.5551 84.9791 14.4579C85.1852 14.3607 85.3555 14.2089 85.4683 14.022H86.393ZM83.0141 12.5709H85.4725C85.4846 12.4197 85.4623 12.2679 85.4073 12.1252C85.3522 11.9825 85.2655 11.852 85.1527 11.7422C85.0398 11.6323 84.9034 11.5455 84.7521 11.4873C84.6009 11.4291 84.4382 11.4009 84.2744 11.4044C84.1083 11.4024 83.9434 11.4313 83.7896 11.4892C83.6356 11.5472 83.4959 11.633 83.3784 11.7417C83.2609 11.8505 83.1682 11.9798 83.1056 12.1222C83.0431 12.2646 83.012 12.4172 83.0141 12.5709Z" fill="white"/>
<path id="Vector_16" d="M87.7415 10.7352H88.666V11.4256H88.7379C88.8414 11.1859 89.0244 10.9828 89.2604 10.8453C89.4966 10.7078 89.7737 10.6431 90.0521 10.6605C90.1959 10.6587 90.3396 10.6711 90.4806 10.6976V11.5746C90.3043 11.5397 90.1246 11.5217 89.9444 11.5209C89.7859 11.5077 89.6263 11.5253 89.4757 11.5727C89.3251 11.62 89.1868 11.6959 89.0699 11.7956C88.9528 11.8953 88.8596 12.0166 88.7963 12.1516C88.733 12.2865 88.7008 12.4323 88.702 12.5795V15.2381H87.7415V10.7352Z" fill="white"/>
<path id="Vector_17" d="M93.9417 12.9853C93.9417 11.5625 94.7323 10.6611 95.9619 10.6611C96.2662 10.6481 96.5681 10.7155 96.8324 10.8554C97.0966 10.9953 97.3125 11.2019 97.4545 11.4511H97.5263V8.97803H98.4869V15.2387H97.5664V14.5273H97.4904C97.3373 14.7748 97.114 14.9788 96.8446 15.1173C96.5752 15.2558 96.27 15.3235 95.9619 15.313C94.7238 15.313 93.9417 14.4116 93.9417 12.9853ZM94.9339 12.9853C94.9339 13.9404 95.4205 14.5151 96.2343 14.5151C97.0439 14.5151 97.5442 13.9321 97.5442 12.9892C97.5442 12.0508 97.0387 11.4594 96.2343 11.4594C95.4258 11.4594 94.9339 12.0381 94.9339 12.9853Z" fill="white"/>
<path id="Vector_18" d="M99.7852 13.9643C99.7852 13.1538 100.437 12.6865 101.595 12.6201L102.914 12.5498V12.1611C102.914 11.6855 102.574 11.417 101.917 11.417C101.381 11.417 101.01 11.5991 100.903 11.9175H99.973C100.071 11.144 100.858 10.6479 101.962 10.6479C103.182 10.6479 103.87 11.2099 103.87 12.1611V15.2378H102.945V14.605H102.869C102.715 14.8319 102.499 15.017 102.242 15.1412C101.985 15.2654 101.697 15.3243 101.407 15.312C101.203 15.3316 100.997 15.3115 100.801 15.2528C100.606 15.1941 100.426 15.0981 100.273 14.9712C100.12 14.8442 99.9979 14.689 99.9138 14.5156C99.8298 14.3422 99.7859 14.1544 99.7852 13.9643ZM102.914 13.5796V13.2031L101.725 13.2734C101.055 13.3149 100.751 13.5259 100.751 13.9228C100.751 14.3281 101.131 14.5639 101.653 14.5639C101.807 14.5783 101.961 14.564 102.108 14.5219C102.255 14.4798 102.392 14.4108 102.509 14.3189C102.627 14.2271 102.723 14.1143 102.793 13.9873C102.862 13.8603 102.903 13.7216 102.914 13.5796Z" fill="white"/>
<path id="Vector_19" d="M105.374 10.7354H106.299V11.4507H106.371C106.492 11.1938 106.698 10.9784 106.958 10.8346C107.218 10.6908 107.521 10.6257 107.823 10.6485C108.06 10.632 108.298 10.665 108.519 10.7451C108.74 10.8252 108.939 10.9503 109.101 11.1112C109.263 11.272 109.383 11.4645 109.453 11.6743C109.523 11.8841 109.543 12.1059 109.507 12.3233V15.2383H108.547V12.5464C108.547 11.8228 108.207 11.4629 107.497 11.4629C107.336 11.456 107.176 11.4813 107.026 11.5371C106.877 11.593 106.743 11.678 106.632 11.7864C106.522 11.8948 106.438 12.0239 106.387 12.1651C106.335 12.3062 106.318 12.4559 106.335 12.604V15.2383H105.374V10.7354Z" fill="white"/>
<path id="Vector_20" d="M112.773 10.6479C113.868 10.6479 114.583 11.1191 114.677 11.9131H113.755C113.667 11.5825 113.317 11.3716 112.773 11.3716C112.237 11.3716 111.829 11.6069 111.829 11.9585C111.829 12.2275 112.076 12.397 112.603 12.5088L113.411 12.6821C114.337 12.8808 114.771 13.249 114.771 13.9106C114.771 14.7583 113.917 15.3247 112.754 15.3247C111.597 15.3247 110.842 14.8408 110.757 14.0429H111.718C111.801 14.2328 111.95 14.3915 112.143 14.4934C112.335 14.5953 112.558 14.6346 112.777 14.6049C113.376 14.6049 113.801 14.3569 113.801 13.997C113.801 13.7285 113.573 13.5547 113.085 13.4472L112.237 13.2651C111.31 13.0625 110.882 12.6782 110.882 12.0083C110.882 11.2099 111.672 10.6479 112.773 10.6479Z" fill="white"/>
<path id="Vector_21" d="M38.8494 18.6147H40.8592V31.0327H38.8494V18.6147Z" fill="white"/>
<path id="Vector_22" d="M43.2805 23.1587L44.3783 18.6147H46.3311L45.0011 23.1587H43.2805Z" fill="white"/>
<path id="Vector_23" d="M53.9258 27.6763H48.8095L47.5809 31.0327H45.4138L50.2598 18.6147H52.5113L57.3574 31.0327H55.1534L53.9258 27.6763ZM49.3395 26.1274H53.3949L51.3957 20.6802H51.3398L49.3395 26.1274Z" fill="white"/>
<path id="Vector_24" d="M67.8221 26.5061C67.8221 29.3195 66.1944 31.1271 63.7382 31.1271C63.1159 31.1573 62.4971 31.0247 61.9526 30.7445C61.408 30.4644 60.9598 30.048 60.6592 29.5431H60.6127V34.0275H58.604V21.9787H60.5483V23.4846H60.5853C60.8997 22.9821 61.3556 22.5679 61.9043 22.2861C62.4529 22.0042 63.074 21.8653 63.7012 21.884C66.185 21.884 67.8221 23.7004 67.8221 26.5061ZM65.7574 26.5061C65.7574 24.6731 64.7336 23.468 63.1714 23.468C61.6365 23.468 60.6043 24.6984 60.6043 26.5061C60.6043 28.3303 61.6365 29.552 63.1714 29.552C64.7336 29.552 65.7574 28.3557 65.7574 26.5061Z" fill="white"/>
<path id="Vector_25" d="M78.5934 26.5061C78.5934 29.3195 76.9657 31.1271 74.5095 31.1271C73.8872 31.1573 73.2684 31.0247 72.7239 30.7445C72.1793 30.4644 71.7311 30.048 71.4305 29.5431H71.384V34.0275H69.3748V21.9787H71.3196V23.4846H71.3565C71.6711 22.9821 72.1269 22.5679 72.6755 22.2861C73.2242 22.0042 73.8453 21.8653 74.4725 21.884C76.9563 21.884 78.5934 23.7004 78.5934 26.5061ZM76.5287 26.5061C76.5287 24.6731 75.5049 23.468 73.9427 23.468C72.4078 23.468 71.3756 24.6984 71.3756 26.5061C71.3756 28.3303 72.4078 29.552 73.9427 29.552C75.5049 29.552 76.5287 28.3557 76.5287 26.5061Z" fill="white"/>
<path id="Vector_26" d="M85.7115 27.5727C85.8604 28.8042 87.1534 29.6127 88.9205 29.6127C90.6136 29.6127 91.8316 28.8042 91.8316 27.6938C91.8316 26.7299 91.0969 26.1528 89.3575 25.7573L87.6179 25.3696C85.1532 24.8188 84.0089 23.7524 84.0089 22.022C84.0089 19.8794 86.0272 18.4077 88.8929 18.4077C91.7291 18.4077 93.6735 19.8794 93.7389 22.022H91.7112C91.5898 20.7827 90.4826 20.0347 88.8644 20.0347C87.2463 20.0347 86.139 20.7915 86.139 21.8931C86.139 22.771 86.8462 23.2876 88.5762 23.6831L90.0551 24.019C92.809 24.6215 93.9533 25.645 93.9533 27.4614C93.9533 29.7846 91.953 31.2397 88.7715 31.2397C85.7949 31.2397 83.7851 29.8188 83.6553 27.5727H85.7115Z" fill="white"/>
<path id="Vector_27" d="M98.2895 19.8374V21.98H100.15V23.4516H98.2895V28.4428C98.2895 29.2182 98.6621 29.5796 99.4801 29.5796C99.701 29.576 99.9216 29.5617 100.141 29.5366V30.9995C99.7731 31.063 99.3992 31.0918 99.0251 31.0854C97.0439 31.0854 96.2713 30.3969 96.2713 28.6411V23.4516H94.8484V21.98H96.2713V19.8374H98.2895Z" fill="white"/>
<path id="Vector_28" d="M101.227 26.5074C101.227 23.6588 103.041 21.8687 105.868 21.8687C108.705 21.8687 110.51 23.6587 110.51 26.5074C110.51 29.3639 108.715 31.1461 105.868 31.1461C103.023 31.1461 101.227 29.3638 101.227 26.5074ZM108.464 26.5074C108.464 24.5533 107.496 23.4 105.868 23.4C104.241 23.4 103.274 24.5621 103.274 26.5074C103.274 28.4693 104.241 29.6139 105.868 29.6139C107.496 29.6139 108.464 28.4693 108.464 26.5074Z" fill="white"/>
<path id="Vector_29" d="M112.166 21.9786H114.083V23.5196H114.129C114.259 23.0383 114.564 22.613 114.992 22.3151C115.421 22.0172 115.947 21.865 116.483 21.8839C116.715 21.8831 116.945 21.9064 117.171 21.9532V23.6915C116.879 23.6089 116.574 23.5709 116.268 23.5792C115.976 23.5682 115.686 23.6158 115.415 23.7187C115.146 23.8216 114.903 23.9774 114.704 24.1752C114.505 24.3731 114.355 24.6085 114.264 24.8652C114.172 25.1218 114.142 25.3937 114.176 25.6622V31.0323H112.166V21.9786Z" fill="white"/>
<path id="Vector_30" d="M126.433 28.3746C126.163 30.0181 124.432 31.1461 122.218 31.1461C119.371 31.1461 117.605 29.3814 117.605 26.5504C117.605 23.7105 119.381 21.8687 122.134 21.8687C124.842 21.8687 126.544 23.5894 126.544 26.3345V26.9713H119.633V27.0836C119.601 27.4168 119.646 27.7524 119.765 28.0683C119.884 28.3841 120.074 28.6729 120.324 28.9154C120.572 29.158 120.874 29.3488 121.209 29.4751C121.544 29.6014 121.904 29.6603 122.265 29.648C122.739 29.6892 123.216 29.5875 123.624 29.358C124.031 29.1286 124.347 28.7837 124.525 28.3746H126.433ZM119.642 25.6724H124.535C124.553 25.3729 124.503 25.073 124.39 24.7918C124.278 24.5106 124.102 24.2541 123.878 24.0383C123.652 23.8226 123.38 23.6522 123.081 23.538C122.78 23.4238 122.458 23.3682 122.134 23.3746C121.808 23.3728 121.483 23.4309 121.18 23.5457C120.877 23.6604 120.603 23.8295 120.371 24.0431C120.139 24.2568 119.955 24.5107 119.831 24.7904C119.705 25.07 119.642 25.3698 119.642 25.6724Z" fill="white"/>
</g>
</g>
</g>
</svg>
